<!DOCTYPE svg PUBLIC "-//W3C//DTD SVG 1.1//EN" "http://www.w3.org/Graphics/SVG/1.1/DTD/svg11.dtd">
<!-- Uploaded to: SVG Repo, www.svgrepo.com, Transformed by: SVG Repo Mixer Tools -->
<svg fill="#000000" height="64px" width="64px" version="1.1" id="Layer_1" xmlns="http://www.w3.org/2000/svg" xmlns:xlink="http://www.w3.org/1999/xlink" viewBox="0 0 512 512" xml:space="preserve" stroke="#000000" stroke-width="0.00512">
<g id="SVGRepo_bgCarrier" stroke-width="0"/>
<g id="SVGRepo_tracerCarrier" stroke-linecap="round" stroke-linejoin="round"/>
<g id="SVGRepo_iconCarrier"> <g> <g> <path d="M469.673,110.762H42.327C18.988,110.762,0,129.75,0,153.089v205.822c0,23.339,18.988,42.327,42.327,42.327h427.347 c23.339,0,42.327-18.988,42.327-42.326V153.089C512,129.75,493.012,110.762,469.673,110.762z M491.602,358.912 c0,12.091-9.837,21.928-21.928,21.928H42.327c-12.091,0-21.928-9.837-21.928-21.928V153.089c0-12.091,9.837-21.928,21.928-21.928 h427.347c12.091,0,21.928,9.837,21.928,21.928V358.912z"/> </g> </g> <g> <g> <path d="M103.522,162.778c-26.713,0-48.446,21.734-48.446,48.446s21.734,48.446,48.446,48.446 c26.713,0,48.446-21.734,48.446-48.446S130.235,162.778,103.522,162.778z M103.522,239.272c-15.465,0-28.048-12.583-28.048-28.048 s12.583-28.048,28.048-28.048c15.465,0,28.048,12.583,28.048,28.048S118.987,239.272,103.522,239.272z"/> </g> </g> <g> <g> <path d="M339.633,200.515h-14.279c-5.632,0-10.199,4.567-10.199,10.199c0,5.632,4.567,10.199,10.199,10.199h14.279 c5.632,0,10.199-4.567,10.199-10.199C349.833,205.083,345.266,200.515,339.633,200.515z"/> </g> </g> <g> <g> <path d="M289.657,200.515H186.645c-5.632,0-10.199,4.567-10.199,10.199c0,5.632,4.567,10.199,10.199,10.199h103.012 c5.632,0,10.199-4.567,10.199-10.199C299.857,205.083,295.289,200.515,289.657,200.515z"/> </g> </g> <g> <g> <path d="M446.725,281.089h-126.47c-5.632,0-10.199,4.567-10.199,10.199c0,5.632,4.567,10.199,10.199,10.199h126.47 c5.632,0,10.199-4.567,10.199-10.199C456.924,285.656,452.357,281.089,446.725,281.089z"/> </g> </g> <g> <g> <path d="M446.725,324.946H202.964c-5.632,0-10.199,4.567-10.199,10.199c0,5.632,4.567,10.199,10.199,10.199h243.761 c5.632,0,10.199-4.567,10.199-10.199C456.924,329.513,452.357,324.946,446.725,324.946z"/> </g> </g> </g>
</svg>